<?xml version="1.0" standalone="no"?>
<!DOCTYPE svg PUBLIC "-//W3C//DTD SVG 20010904//EN"
 "http://www.w3.org/TR/2001/REC-SVG-20010904/DTD/svg10.dtd">
<svg version="1.0" xmlns="http://www.w3.org/2000/svg"
 width="100.000000pt" height="100.000000pt" viewBox="0 0 100.000000 100.000000"
 preserveAspectRatio="xMidYMid meet">

<g transform="translate(0.000000,100.000000) scale(0.100000,-0.100000)"
fill="#000000" stroke="none">
<path d="M300 497 c0 -124 2 -147 15 -147 12 0 15 18 15 102 l0 102 29 -40
c15 -21 49 -68 75 -104 l46 -64 0 137 c0 158 -18 190 -22 40 l-3 -98 -77 109
-78 110 0 -147z"/>
<path d="M550 491 c0 -87 4 -141 10 -141 6 0 10 24 10 54 l0 54 57 4 c66 6 93
30 93 83 0 56 -27 78 -104 83 l-66 4 0 -141z m131 93 c23 -21 24 -42 3 -72
-12 -18 -25 -22 -65 -22 l-49 0 0 53 c0 30 3 57 8 61 12 13 82 -1 103 -20z"/>
</g>
</svg>
