<?xml version="1.0" standalone="no"?>
<!DOCTYPE svg PUBLIC "-//W3C//DTD SVG 20010904//EN"
 "http://www.w3.org/TR/2001/REC-SVG-20010904/DTD/svg10.dtd">
<svg version="1.0" xmlns="http://www.w3.org/2000/svg"
 width="40.000000pt" height="40.000000pt" viewBox="0 0 40.000000 40.000000"
 preserveAspectRatio="xMidYMid meet">

<g transform="translate(0.000000,40.000000) scale(0.100000,-0.100000)"
fill="#000000" stroke="none">
<path d="M0 200 l0 -200 200 0 200 0 0 200 0 200 -200 0 -200 0 0 -200z m146
15 l29 -40 6 50 c5 46 6 44 7 -25 l2 -75 -38 54 -37 53 -6 -53 c-6 -53 -6 -52
-7 21 -1 40 2 70 6 65 4 -6 21 -28 38 -50z m159 15 c0 -32 -3 -35 -32 -38 -29
-3 -33 -7 -33 -33 0 -16 -4 -29 -10 -29 -6 0 -10 30 -10 71 l0 70 43 -3 c41
-3 42 -4 42 -38z"/>
<path d="M240 231 c0 -23 5 -31 18 -31 49 1 58 53 9 58 -24 3 -27 0 -27 -27z"/>
</g>
</svg>
